<?xml version="1.0" encoding="UTF-8"?>
<svg width="24px" height="24px" viewBox="0 0 24 24" version="1.1" xmlns="http://www.w3.org/2000/svg" xmlns:xlink="http://www.w3.org/1999/xlink">
    <title>badge</title>
    <defs>
        <linearGradient x1="50%" y1="0%" x2="50%" y2="100%" id="linearGradient-1">
            <stop stop-color="#ED001D" offset="39.4429%"></stop>
            <stop stop-color="#FF5469" offset="100%"></stop>
        </linearGradient>
        <path d="M0,3.33333333 C0,1.49238889 1.49238889,0 3.33333333,0 L4.22222222,0 C6.1859,0 7.77777778,1.59187778 7.77777778,3.55555556 L7.77777778,5.55555556 L2.22222222,5.55555556 C0.994922222,5.55555556 0,4.56063333 0,3.33333333 L0,3.33333333 Z" id="path-2"></path>
        <path d="M8.72588889,3.33333333 C8.72588889,1.49238889 7.23344444,0 5.39255556,0 L4.50366667,0 C2.54,0 0.948077778,1.59187778 0.948077778,3.55555556 L0.948077778,5.55555556 L6.50366667,5.55555556 C7.73088889,5.55555556 8.72588889,4.56063333 8.72588889,3.33333333 L8.72588889,3.33333333 Z" id="path-4"></path>
    </defs>
    <g id="badge" stroke="none" stroke-width="1" fill="none" fill-rule="evenodd">
        <g id="Big-Campaign-Badge-(1)" transform="translate(2.000000, 2.000000)">
            <rect id="Rectangle" fill="url(#linearGradient-1)" fill-rule="nonzero" x="1.11111111" y="5.55555556" width="17.7777778" height="14.4444444" rx="1"></rect>
            <rect id="Rectangle" fill="#FF5469" fill-rule="nonzero" x="0" y="5.55555556" width="20" height="5.55555556" rx="1"></rect>
            <rect id="Rectangle" fill="#16D39A" fill-rule="nonzero" x="8.88888889" y="5.55555556" width="2.22222222" height="14.4444444"></rect>
            <g id="Clipped" transform="translate(2.222222, 0.000000)">
                <mask id="mask-3" fill="white">
                    <use xlink:href="#path-2"></use>
                </mask>
                <g id="Path"></g>
                <path d="M7.77777778,5.55555556 L7.77777778,7.45184444 L9.67411111,7.45184444 L9.67411111,5.55555556 L7.77777778,5.55555556 Z M3.33333333,1.89628889 L4.22222222,1.89628889 L4.22222222,-1.89628667 L3.33333333,-1.89628667 L3.33333333,1.89628889 Z M5.88148889,3.55555556 L5.88148889,5.55555556 L9.67411111,5.55555556 L9.67411111,3.55555556 L5.88148889,3.55555556 Z M7.77777778,3.65926667 L2.22222222,3.65926667 L2.22222222,7.45184444 L7.77777778,7.45184444 L7.77777778,3.65926667 Z M2.22222222,3.65926667 C2.04221111,3.65926667 1.89628889,3.51334444 1.89628889,3.33333333 L-1.89628889,3.33333333 C-1.89628889,5.60792222 -0.0523666667,7.45184444 2.22222222,7.45184444 L2.22222222,3.65926667 Z M4.22222222,1.89628889 C5.13861111,1.89628889 5.88148889,2.63916667 5.88148889,3.55555556 L9.67411111,3.55555556 C9.67411111,0.544588889 7.23318889,-1.89628667 4.22222222,-1.89628667 L4.22222222,1.89628889 Z M3.33333333,-1.89628667 C0.445088889,-1.89628667 -1.89628889,0.445088889 -1.89628889,3.33333333 L1.89628889,3.33333333 C1.89628889,2.53967778 2.53967778,1.89628889 3.33333333,1.89628889 L3.33333333,-1.89628667 Z" id="Shape" fill="#16D39A" fill-rule="nonzero" mask="url(#mask-3)"></path>
            </g>
            <g id="Clipped" transform="translate(8.888889, 0.000000)">
                <mask id="mask-5" fill="white">
                    <use xlink:href="#path-4"></use>
                </mask>
                <g id="Path"></g>
                <path d="M0.948077778,5.55555556 L0.948077778,7.45184444 L-0.948211111,7.45184444 L-0.948211111,5.55555556 L0.948077778,5.55555556 Z M5.39255556,1.89628889 L4.50366667,1.89628889 L4.50366667,-1.89628667 L5.39255556,-1.89628667 L5.39255556,1.89628889 Z M2.84433333,3.55555556 L2.84433333,5.55555556 L-0.948211111,5.55555556 L-0.948211111,3.55555556 L2.84433333,3.55555556 Z M0.948077778,3.65926667 L6.50366667,3.65926667 L6.50366667,7.45184444 L0.948077778,7.45184444 L0.948077778,3.65926667 Z M6.50366667,3.65926667 C6.68366667,3.65926667 6.82955556,3.51334444 6.82955556,3.33333333 L10.6221111,3.33333333 C10.6221111,5.60792222 8.77822222,7.45184444 6.50366667,7.45184444 L6.50366667,3.65926667 Z M4.50366667,1.89628889 C3.58722222,1.89628889 2.84433333,2.63916667 2.84433333,3.55555556 L-0.948211111,3.55555556 C-0.948211111,0.544588889 1.49266667,-1.89628667 4.50366667,-1.89628667 L4.50366667,1.89628889 Z M5.39255556,-1.89628667 C8.28077778,-1.89628667 10.6221111,0.445088889 10.6221111,3.33333333 L6.82955556,3.33333333 C6.82955556,2.53967778 6.18622222,1.89628889 5.39255556,1.89628889 L5.39255556,-1.89628667 Z" id="Shape" fill="#16D39A" fill-rule="nonzero" mask="url(#mask-5)"></path>
            </g>
        </g>
    </g>
</svg>